<mxfile host="app.diagrams.net" agent="Mozilla/5.0 (Macintosh; Intel Mac OS X 10_15_7) AppleWebKit/537.36 (KHTML, like Gecko) Chrome/130.0.0.0 Safari/537.36" version="24.8.6" pages="4">
  <diagram id="C5RBs43oDa-KdzZeNtuy" name="START-PIC">
    <mxGraphModel dx="674" dy="911" grid="1" gridSize="10" guides="1" tooltips="1" connect="1" arrows="1" fold="1" page="1" pageScale="1" pageWidth="827" pageHeight="1169" math="0" shadow="0">
      <root>
        <mxCell id="WIyWlLk6GJQsqaUBKTNV-0" />
        <mxCell id="WIyWlLk6GJQsqaUBKTNV-1" parent="WIyWlLk6GJQsqaUBKTNV-0" />
        <mxCell id="lRhcf-KUeyFwy6Z_v7GA-0" value="" style="rounded=0;html=1;jettySize=auto;orthogonalLoop=1;fontSize=11;endArrow=block;endFill=0;endSize=8;strokeWidth=1;shadow=0;labelBackgroundColor=none;edgeStyle=orthogonalEdgeStyle;entryX=0.5;entryY=0;entryDx=0;entryDy=0;" parent="WIyWlLk6GJQsqaUBKTNV-1" source="lRhcf-KUeyFwy6Z_v7GA-1" target="lZxvHljDLnMzjBAgc4R8-0" edge="1">
          <mxGeometry relative="1" as="geometry">
            <mxPoint x="220" y="350" as="targetPoint" />
          </mxGeometry>
        </mxCell>
        <mxCell id="lRhcf-KUeyFwy6Z_v7GA-1" value="Turn on MP, Unreg2" style="rounded=1;whiteSpace=wrap;html=1;fontSize=12;glass=0;strokeWidth=1;shadow=0;fillColor=#d5e8d4;strokeColor=#82b366;" parent="WIyWlLk6GJQsqaUBKTNV-1" vertex="1">
          <mxGeometry x="160" y="280" width="120" height="40" as="geometry" />
        </mxCell>
        <mxCell id="lRhcf-KUeyFwy6Z_v7GA-2" value="" style="rounded=0;html=1;jettySize=auto;orthogonalLoop=1;fontSize=11;endArrow=block;endFill=0;endSize=8;strokeWidth=1;shadow=0;labelBackgroundColor=none;edgeStyle=orthogonalEdgeStyle;entryX=0.5;entryY=0;entryDx=0;entryDy=0;exitX=0.5;exitY=1;exitDx=0;exitDy=0;" parent="WIyWlLk6GJQsqaUBKTNV-1" source="lZxvHljDLnMzjBAgc4R8-0" target="lRhcf-KUeyFwy6Z_v7GA-6" edge="1">
          <mxGeometry y="20" relative="1" as="geometry">
            <mxPoint as="offset" />
            <mxPoint x="220" y="430" as="sourcePoint" />
            <mxPoint x="220" y="490" as="targetPoint" />
          </mxGeometry>
        </mxCell>
        <mxCell id="lRhcf-KUeyFwy6Z_v7GA-4" value="" style="rounded=0;html=1;jettySize=auto;orthogonalLoop=1;fontSize=11;endArrow=block;endFill=0;endSize=8;strokeWidth=1;shadow=0;labelBackgroundColor=none;edgeStyle=orthogonalEdgeStyle;exitX=0.5;exitY=1;exitDx=0;exitDy=0;entryX=0.5;entryY=0;entryDx=0;entryDy=0;" parent="WIyWlLk6GJQsqaUBKTNV-1" source="lRhcf-KUeyFwy6Z_v7GA-6" target="lRhcf-KUeyFwy6Z_v7GA-9" edge="1">
          <mxGeometry x="0.3333" y="20" relative="1" as="geometry">
            <mxPoint as="offset" />
            <mxPoint x="220" y="570" as="sourcePoint" />
            <mxPoint x="300" y="550" as="targetPoint" />
          </mxGeometry>
        </mxCell>
        <mxCell id="lZxvHljDLnMzjBAgc4R8-5" value="True" style="edgeLabel;html=1;align=center;verticalAlign=middle;resizable=0;points=[];fontSize=12;" vertex="1" connectable="0" parent="lRhcf-KUeyFwy6Z_v7GA-4">
          <mxGeometry x="-0.0864" y="-1" relative="1" as="geometry">
            <mxPoint as="offset" />
          </mxGeometry>
        </mxCell>
        <mxCell id="lRhcf-KUeyFwy6Z_v7GA-5" value="&lt;div&gt;Count time&lt;/div&gt;" style="rounded=1;whiteSpace=wrap;html=1;fontSize=12;glass=0;strokeWidth=1;shadow=0;fillColor=#d5e8d4;strokeColor=#82b366;" parent="WIyWlLk6GJQsqaUBKTNV-1" vertex="1">
          <mxGeometry x="340" y="400" width="120" height="60" as="geometry" />
        </mxCell>
        <mxCell id="lRhcf-KUeyFwy6Z_v7GA-6" value="&lt;div&gt;Rcv cmd to stop SP from GS&lt;/div&gt;" style="rounded=1;whiteSpace=wrap;html=1;fontSize=12;glass=0;strokeWidth=1;shadow=0;fillColor=#d5e8d4;strokeColor=#82b366;" parent="WIyWlLk6GJQsqaUBKTNV-1" vertex="1">
          <mxGeometry x="160" y="450" width="120" height="40" as="geometry" />
        </mxCell>
        <mxCell id="lRhcf-KUeyFwy6Z_v7GA-7" value="START&lt;div&gt;PIC&lt;/div&gt;" style="ellipse;whiteSpace=wrap;html=1;fillColor=#e1d5e7;strokeColor=#9673a6;" parent="WIyWlLk6GJQsqaUBKTNV-1" vertex="1">
          <mxGeometry x="145" y="60" width="150" height="80" as="geometry" />
        </mxCell>
        <mxCell id="lRhcf-KUeyFwy6Z_v7GA-8" value="START" style="ellipse;whiteSpace=wrap;html=1;fillColor=#ffe6cc;strokeColor=#d79b00;" parent="WIyWlLk6GJQsqaUBKTNV-1" vertex="1">
          <mxGeometry x="160" y="150" width="120" height="80" as="geometry" />
        </mxCell>
        <mxCell id="lRhcf-KUeyFwy6Z_v7GA-9" value="END" style="ellipse;whiteSpace=wrap;html=1;fillColor=#ffe6cc;strokeColor=#d79b00;" parent="WIyWlLk6GJQsqaUBKTNV-1" vertex="1">
          <mxGeometry x="160" y="545" width="120" height="80" as="geometry" />
        </mxCell>
        <mxCell id="lRhcf-KUeyFwy6Z_v7GA-10" value="" style="rounded=0;html=1;jettySize=auto;orthogonalLoop=1;fontSize=11;endArrow=block;endFill=0;endSize=8;strokeWidth=1;shadow=0;labelBackgroundColor=none;edgeStyle=orthogonalEdgeStyle;exitX=0.5;exitY=0;exitDx=0;exitDy=0;" parent="WIyWlLk6GJQsqaUBKTNV-1" source="lRhcf-KUeyFwy6Z_v7GA-5" edge="1">
          <mxGeometry x="0.3333" y="20" relative="1" as="geometry">
            <mxPoint as="offset" />
            <mxPoint x="450" y="430" as="sourcePoint" />
            <mxPoint x="220" y="250" as="targetPoint" />
            <Array as="points">
              <mxPoint x="400" y="250" />
            </Array>
          </mxGeometry>
        </mxCell>
        <mxCell id="lRhcf-KUeyFwy6Z_v7GA-11" value="" style="rounded=0;html=1;jettySize=auto;orthogonalLoop=1;fontSize=11;endArrow=block;endFill=0;endSize=8;strokeWidth=1;shadow=0;labelBackgroundColor=none;edgeStyle=orthogonalEdgeStyle;entryX=0.5;entryY=0;entryDx=0;entryDy=0;exitX=0.5;exitY=1;exitDx=0;exitDy=0;" parent="WIyWlLk6GJQsqaUBKTNV-1" source="lRhcf-KUeyFwy6Z_v7GA-8" target="lRhcf-KUeyFwy6Z_v7GA-1" edge="1">
          <mxGeometry relative="1" as="geometry">
            <mxPoint x="230" y="330" as="sourcePoint" />
            <mxPoint x="230" y="390" as="targetPoint" />
          </mxGeometry>
        </mxCell>
        <mxCell id="lZxvHljDLnMzjBAgc4R8-0" value="&lt;div&gt;Min &amp;gt; 33 &amp;amp;&amp;nbsp;&lt;/div&gt;&lt;div&gt;Hour &amp;lt; 1&lt;/div&gt;" style="rhombus;whiteSpace=wrap;html=1;shadow=0;fontFamily=Helvetica;fontSize=12;align=center;strokeWidth=1;spacing=6;spacingTop=-4;fillColor=#e1d5e7;strokeColor=#9673a6;" vertex="1" parent="WIyWlLk6GJQsqaUBKTNV-1">
          <mxGeometry x="170" y="350" width="100" height="80" as="geometry" />
        </mxCell>
        <mxCell id="lZxvHljDLnMzjBAgc4R8-1" value="" style="rounded=0;html=1;jettySize=auto;orthogonalLoop=1;fontSize=11;endArrow=block;endFill=0;endSize=8;strokeWidth=1;shadow=0;labelBackgroundColor=none;edgeStyle=orthogonalEdgeStyle;exitX=1;exitY=0.5;exitDx=0;exitDy=0;entryX=0.5;entryY=1;entryDx=0;entryDy=0;" edge="1" parent="WIyWlLk6GJQsqaUBKTNV-1" source="lRhcf-KUeyFwy6Z_v7GA-9" target="lRhcf-KUeyFwy6Z_v7GA-5">
          <mxGeometry x="0.3333" y="20" relative="1" as="geometry">
            <mxPoint as="offset" />
            <mxPoint x="230" y="500" as="sourcePoint" />
            <mxPoint x="230" y="555" as="targetPoint" />
          </mxGeometry>
        </mxCell>
        <mxCell id="lZxvHljDLnMzjBAgc4R8-2" value="&lt;div&gt;Pwr sup to Unreg1, CP&lt;/div&gt;" style="rounded=1;whiteSpace=wrap;html=1;fontSize=12;glass=0;strokeWidth=1;shadow=0;fillColor=#d5e8d4;strokeColor=#82b366;" vertex="1" parent="WIyWlLk6GJQsqaUBKTNV-1">
          <mxGeometry y="360" width="120" height="60" as="geometry" />
        </mxCell>
        <mxCell id="lZxvHljDLnMzjBAgc4R8-3" value="" style="rounded=0;html=1;jettySize=auto;orthogonalLoop=1;fontSize=11;endArrow=block;endFill=0;endSize=8;strokeWidth=1;shadow=0;labelBackgroundColor=none;edgeStyle=orthogonalEdgeStyle;exitX=0;exitY=0.5;exitDx=0;exitDy=0;entryX=1;entryY=0.5;entryDx=0;entryDy=0;" edge="1" parent="WIyWlLk6GJQsqaUBKTNV-1" source="lZxvHljDLnMzjBAgc4R8-0" target="lZxvHljDLnMzjBAgc4R8-2">
          <mxGeometry x="0.3333" y="20" relative="1" as="geometry">
            <mxPoint as="offset" />
            <mxPoint x="290" y="595" as="sourcePoint" />
            <mxPoint x="410" y="470" as="targetPoint" />
          </mxGeometry>
        </mxCell>
        <mxCell id="lZxvHljDLnMzjBAgc4R8-4" value="True" style="edgeLabel;html=1;align=center;verticalAlign=middle;resizable=0;points=[];fontSize=12;" vertex="1" connectable="0" parent="lZxvHljDLnMzjBAgc4R8-3">
          <mxGeometry x="-0.255" y="-1" relative="1" as="geometry">
            <mxPoint as="offset" />
          </mxGeometry>
        </mxCell>
      </root>
    </mxGraphModel>
  </diagram>
  <diagram name="RESET-PIC" id="jT8_f6VVq_qG7gZZXY0b">
    <mxGraphModel dx="1572" dy="1007" grid="1" gridSize="10" guides="1" tooltips="1" connect="1" arrows="1" fold="1" page="1" pageScale="1" pageWidth="827" pageHeight="1169" math="0" shadow="0">
      <root>
        <mxCell id="wKN9chTsW7mNMitrZWVQ-0" />
        <mxCell id="wKN9chTsW7mNMitrZWVQ-1" parent="wKN9chTsW7mNMitrZWVQ-0" />
        <mxCell id="NiiNuS9fkEexJ306rpCw-0" value="" style="rounded=0;html=1;jettySize=auto;orthogonalLoop=1;fontSize=11;endArrow=block;endFill=0;endSize=8;strokeWidth=1;shadow=0;labelBackgroundColor=none;edgeStyle=orthogonalEdgeStyle;exitX=0.5;exitY=1;exitDx=0;exitDy=0;entryX=0.5;entryY=0;entryDx=0;entryDy=0;" parent="wKN9chTsW7mNMitrZWVQ-1" source="NiiNuS9fkEexJ306rpCw-6" target="NiiNuS9fkEexJ306rpCw-4" edge="1">
          <mxGeometry relative="1" as="geometry">
            <mxPoint x="185" y="320" as="sourcePoint" />
            <mxPoint x="255" y="350" as="targetPoint" />
            <Array as="points">
              <mxPoint x="185" y="270" />
              <mxPoint x="185" y="270" />
            </Array>
          </mxGeometry>
        </mxCell>
        <mxCell id="NiiNuS9fkEexJ306rpCw-1" value="" style="edgeStyle=orthogonalEdgeStyle;rounded=0;html=1;jettySize=auto;orthogonalLoop=1;fontSize=11;endArrow=block;endFill=0;endSize=8;strokeWidth=1;shadow=0;labelBackgroundColor=none;exitX=0.5;exitY=1;exitDx=0;exitDy=0;entryX=0.5;entryY=0;entryDx=0;entryDy=0;" parent="wKN9chTsW7mNMitrZWVQ-1" source="NiiNuS9fkEexJ306rpCw-4" target="NiiNuS9fkEexJ306rpCw-2" edge="1">
          <mxGeometry y="10" relative="1" as="geometry">
            <mxPoint as="offset" />
            <mxPoint x="235" y="514" as="sourcePoint" />
            <mxPoint x="185" y="530" as="targetPoint" />
            <Array as="points" />
          </mxGeometry>
        </mxCell>
        <mxCell id="NiiNuS9fkEexJ306rpCw-2" value="&lt;div&gt;Verify day &amp;amp; check first run mode&lt;/div&gt;" style="rounded=1;whiteSpace=wrap;html=1;fontSize=12;glass=0;strokeWidth=1;shadow=0;fillColor=#d5e8d4;strokeColor=#82b366;" parent="wKN9chTsW7mNMitrZWVQ-1" vertex="1">
          <mxGeometry x="125" y="360" width="120" height="50" as="geometry" />
        </mxCell>
        <mxCell id="NiiNuS9fkEexJ306rpCw-4" value="&lt;div&gt;Setup registers/ variables&lt;/div&gt;" style="rounded=1;whiteSpace=wrap;html=1;fontSize=12;glass=0;strokeWidth=1;shadow=0;fillColor=#d5e8d4;strokeColor=#82b366;" parent="wKN9chTsW7mNMitrZWVQ-1" vertex="1">
          <mxGeometry x="125" y="290" width="120" height="40" as="geometry" />
        </mxCell>
        <mxCell id="NiiNuS9fkEexJ306rpCw-5" value="RESET&lt;div&gt;PIC&lt;/div&gt;" style="ellipse;whiteSpace=wrap;html=1;fillColor=#e1d5e7;strokeColor=#9673a6;" parent="wKN9chTsW7mNMitrZWVQ-1" vertex="1">
          <mxGeometry x="110" y="80" width="150" height="80" as="geometry" />
        </mxCell>
        <mxCell id="NiiNuS9fkEexJ306rpCw-6" value="START" style="ellipse;whiteSpace=wrap;html=1;fillColor=#ffe6cc;strokeColor=#d79b00;" parent="wKN9chTsW7mNMitrZWVQ-1" vertex="1">
          <mxGeometry x="125" y="170" width="120" height="80" as="geometry" />
        </mxCell>
        <mxCell id="NiiNuS9fkEexJ306rpCw-10" value="True" style="edgeStyle=orthogonalEdgeStyle;rounded=0;html=1;jettySize=auto;orthogonalLoop=1;fontSize=11;endArrow=block;endFill=0;endSize=8;strokeWidth=1;shadow=0;labelBackgroundColor=none;exitX=0.5;exitY=0;exitDx=0;exitDy=0;entryX=1;entryY=0.5;entryDx=0;entryDy=0;" parent="wKN9chTsW7mNMitrZWVQ-1" source="NiiNuS9fkEexJ306rpCw-15" target="NiiNuS9fkEexJ306rpCw-12" edge="1">
          <mxGeometry y="10" relative="1" as="geometry">
            <mxPoint as="offset" />
            <mxPoint x="390" y="450" as="sourcePoint" />
            <mxPoint x="390" y="390" as="targetPoint" />
          </mxGeometry>
        </mxCell>
        <mxCell id="NiiNuS9fkEexJ306rpCw-12" value="&lt;div&gt;Collect RST time data&lt;/div&gt;" style="rounded=1;whiteSpace=wrap;html=1;fontSize=12;glass=0;strokeWidth=1;shadow=0;fillColor=#d5e8d4;strokeColor=#82b366;" parent="wKN9chTsW7mNMitrZWVQ-1" vertex="1">
          <mxGeometry x="125" y="430" width="120" height="50" as="geometry" />
        </mxCell>
        <mxCell id="NiiNuS9fkEexJ306rpCw-13" value="" style="rounded=0;html=1;jettySize=auto;orthogonalLoop=1;fontSize=11;endArrow=block;endFill=0;endSize=8;strokeWidth=1;shadow=0;labelBackgroundColor=none;edgeStyle=orthogonalEdgeStyle;entryX=0.5;entryY=0;entryDx=0;entryDy=0;" parent="wKN9chTsW7mNMitrZWVQ-1" source="NiiNuS9fkEexJ306rpCw-15" target="NiiNuS9fkEexJ306rpCw-18" edge="1">
          <mxGeometry x="0.3333" y="20" relative="1" as="geometry">
            <mxPoint as="offset" />
            <mxPoint x="340" y="670" as="targetPoint" />
          </mxGeometry>
        </mxCell>
        <mxCell id="NiiNuS9fkEexJ306rpCw-14" value="True" style="edgeStyle=orthogonalEdgeStyle;rounded=0;html=1;jettySize=auto;orthogonalLoop=1;fontSize=11;endArrow=block;endFill=0;endSize=8;strokeWidth=1;shadow=0;labelBackgroundColor=none;entryX=0;entryY=0.5;entryDx=0;entryDy=0;" parent="wKN9chTsW7mNMitrZWVQ-1" source="NiiNuS9fkEexJ306rpCw-15" target="NiiNuS9fkEexJ306rpCw-21" edge="1">
          <mxGeometry y="10" relative="1" as="geometry">
            <mxPoint as="offset" />
          </mxGeometry>
        </mxCell>
        <mxCell id="NiiNuS9fkEexJ306rpCw-15" value="RESET Flag = 1" style="rhombus;whiteSpace=wrap;html=1;shadow=0;fontFamily=Helvetica;fontSize=12;align=center;strokeWidth=1;spacing=6;spacingTop=-4;fillColor=#e1d5e7;strokeColor=#9673a6;" parent="wKN9chTsW7mNMitrZWVQ-1" vertex="1">
          <mxGeometry x="290" y="510" width="100" height="80" as="geometry" />
        </mxCell>
        <mxCell id="NiiNuS9fkEexJ306rpCw-16" value="&lt;div&gt;Turn on Com and Transceiver&lt;/div&gt;" style="rounded=1;whiteSpace=wrap;html=1;fontSize=12;glass=0;strokeWidth=1;shadow=0;fillColor=#d5e8d4;strokeColor=#82b366;" parent="wKN9chTsW7mNMitrZWVQ-1" vertex="1">
          <mxGeometry x="-30" y="530" width="120" height="40" as="geometry" />
        </mxCell>
        <mxCell id="NiiNuS9fkEexJ306rpCw-17" value="RESET&amp;nbsp;&lt;div&gt;LOOP&lt;/div&gt;" style="ellipse;whiteSpace=wrap;html=1;fillColor=#ffe6cc;strokeColor=#d79b00;" parent="wKN9chTsW7mNMitrZWVQ-1" vertex="1">
          <mxGeometry x="340" y="390" width="120" height="80" as="geometry" />
        </mxCell>
        <mxCell id="NiiNuS9fkEexJ306rpCw-18" value="MAIN CMD = 0x27" style="rhombus;whiteSpace=wrap;html=1;shadow=0;fontFamily=Helvetica;fontSize=12;align=center;strokeWidth=1;spacing=6;spacingTop=-4;fillColor=#e1d5e7;strokeColor=#9673a6;" parent="wKN9chTsW7mNMitrZWVQ-1" vertex="1">
          <mxGeometry x="290" y="610" width="100" height="80" as="geometry" />
        </mxCell>
        <mxCell id="NiiNuS9fkEexJ306rpCw-19" value="&lt;div&gt;MAIN&lt;/div&gt;&lt;div&gt;Count = 3600s&lt;/div&gt;" style="rhombus;whiteSpace=wrap;html=1;shadow=0;fontFamily=Helvetica;fontSize=12;align=center;strokeWidth=1;spacing=6;spacingTop=-4;fillColor=#e1d5e7;strokeColor=#9673a6;" parent="wKN9chTsW7mNMitrZWVQ-1" vertex="1">
          <mxGeometry x="290" y="710" width="100" height="80" as="geometry" />
        </mxCell>
        <mxCell id="NiiNuS9fkEexJ306rpCw-20" value="" style="rounded=0;html=1;jettySize=auto;orthogonalLoop=1;fontSize=11;endArrow=block;endFill=0;endSize=8;strokeWidth=1;shadow=0;labelBackgroundColor=none;edgeStyle=orthogonalEdgeStyle;entryX=0.5;entryY=0;entryDx=0;entryDy=0;exitX=0.5;exitY=1;exitDx=0;exitDy=0;" parent="wKN9chTsW7mNMitrZWVQ-1" source="NiiNuS9fkEexJ306rpCw-18" target="NiiNuS9fkEexJ306rpCw-19" edge="1">
          <mxGeometry x="0.3333" y="20" relative="1" as="geometry">
            <mxPoint as="offset" />
            <mxPoint x="350" y="620" as="sourcePoint" />
            <mxPoint x="350" y="700" as="targetPoint" />
          </mxGeometry>
        </mxCell>
        <mxCell id="NiiNuS9fkEexJ306rpCw-21" value="Reset satellite" style="rounded=1;whiteSpace=wrap;html=1;fontSize=12;glass=0;strokeWidth=1;shadow=0;fillColor=#d5e8d4;strokeColor=#82b366;" parent="wKN9chTsW7mNMitrZWVQ-1" vertex="1">
          <mxGeometry x="440" y="530" width="120" height="40" as="geometry" />
        </mxCell>
        <mxCell id="NiiNuS9fkEexJ306rpCw-22" value="True" style="edgeStyle=orthogonalEdgeStyle;rounded=0;html=1;jettySize=auto;orthogonalLoop=1;fontSize=11;endArrow=block;endFill=0;endSize=8;strokeWidth=1;shadow=0;labelBackgroundColor=none;entryX=1;entryY=0.5;entryDx=0;entryDy=0;exitX=0;exitY=0.5;exitDx=0;exitDy=0;" parent="wKN9chTsW7mNMitrZWVQ-1" source="WHDjwU04RVyw4QYj8cr9-3" target="WHDjwU04RVyw4QYj8cr9-11" edge="1">
          <mxGeometry y="10" relative="1" as="geometry">
            <mxPoint as="offset" />
            <mxPoint x="95" y="500" as="sourcePoint" />
            <mxPoint x="145" y="500" as="targetPoint" />
          </mxGeometry>
        </mxCell>
        <mxCell id="NiiNuS9fkEexJ306rpCw-23" value="" style="edgeStyle=orthogonalEdgeStyle;rounded=0;html=1;jettySize=auto;orthogonalLoop=1;fontSize=11;endArrow=block;endFill=0;endSize=8;strokeWidth=1;shadow=0;labelBackgroundColor=none;exitX=1;exitY=0.5;exitDx=0;exitDy=0;entryX=0.5;entryY=1;entryDx=0;entryDy=0;" parent="wKN9chTsW7mNMitrZWVQ-1" source="NiiNuS9fkEexJ306rpCw-18" target="NiiNuS9fkEexJ306rpCw-21" edge="1">
          <mxGeometry y="10" relative="1" as="geometry">
            <mxPoint as="offset" />
            <mxPoint x="400" y="660" as="sourcePoint" />
            <mxPoint x="510" y="690" as="targetPoint" />
          </mxGeometry>
        </mxCell>
        <mxCell id="NiiNuS9fkEexJ306rpCw-24" value="True" style="edgeLabel;html=1;align=center;verticalAlign=middle;resizable=0;points=[];" parent="NiiNuS9fkEexJ306rpCw-23" vertex="1" connectable="0">
          <mxGeometry x="-0.5897" y="2" relative="1" as="geometry">
            <mxPoint as="offset" />
          </mxGeometry>
        </mxCell>
        <mxCell id="WHDjwU04RVyw4QYj8cr9-1" value="" style="rounded=0;html=1;jettySize=auto;orthogonalLoop=1;fontSize=11;endArrow=block;endFill=0;endSize=8;strokeWidth=1;shadow=0;labelBackgroundColor=none;edgeStyle=orthogonalEdgeStyle;entryX=0.5;entryY=0;entryDx=0;entryDy=0;" edge="1" parent="wKN9chTsW7mNMitrZWVQ-1" source="WHDjwU04RVyw4QYj8cr9-2" target="WHDjwU04RVyw4QYj8cr9-3">
          <mxGeometry x="0.3333" y="20" relative="1" as="geometry">
            <mxPoint as="offset" />
            <mxPoint x="195" y="670" as="targetPoint" />
          </mxGeometry>
        </mxCell>
        <mxCell id="WHDjwU04RVyw4QYj8cr9-2" value="&lt;div&gt;Min&amp;gt; 33 &amp;amp; hour&amp;lt;1&lt;/div&gt;" style="rhombus;whiteSpace=wrap;html=1;shadow=0;fontFamily=Helvetica;fontSize=12;align=center;strokeWidth=1;spacing=6;spacingTop=-4;fillColor=#e1d5e7;strokeColor=#9673a6;" vertex="1" parent="wKN9chTsW7mNMitrZWVQ-1">
          <mxGeometry x="145" y="510" width="100" height="80" as="geometry" />
        </mxCell>
        <mxCell id="WHDjwU04RVyw4QYj8cr9-3" value="MAIN CMD = 0x28" style="rhombus;whiteSpace=wrap;html=1;shadow=0;fontFamily=Helvetica;fontSize=12;align=center;strokeWidth=1;spacing=6;spacingTop=-4;fillColor=#e1d5e7;strokeColor=#9673a6;" vertex="1" parent="wKN9chTsW7mNMitrZWVQ-1">
          <mxGeometry x="145" y="610" width="100" height="80" as="geometry" />
        </mxCell>
        <mxCell id="WHDjwU04RVyw4QYj8cr9-4" value="&lt;div&gt;MAIN CMD = 0xBC&lt;/div&gt;" style="rhombus;whiteSpace=wrap;html=1;shadow=0;fontFamily=Helvetica;fontSize=12;align=center;strokeWidth=1;spacing=6;spacingTop=-4;fillColor=#e1d5e7;strokeColor=#9673a6;" vertex="1" parent="wKN9chTsW7mNMitrZWVQ-1">
          <mxGeometry x="145" y="710" width="100" height="80" as="geometry" />
        </mxCell>
        <mxCell id="WHDjwU04RVyw4QYj8cr9-5" value="" style="rounded=0;html=1;jettySize=auto;orthogonalLoop=1;fontSize=11;endArrow=block;endFill=0;endSize=8;strokeWidth=1;shadow=0;labelBackgroundColor=none;edgeStyle=orthogonalEdgeStyle;entryX=0.5;entryY=0;entryDx=0;entryDy=0;exitX=0.5;exitY=1;exitDx=0;exitDy=0;" edge="1" parent="wKN9chTsW7mNMitrZWVQ-1" source="WHDjwU04RVyw4QYj8cr9-3" target="WHDjwU04RVyw4QYj8cr9-4">
          <mxGeometry x="0.3333" y="20" relative="1" as="geometry">
            <mxPoint as="offset" />
            <mxPoint x="205" y="620" as="sourcePoint" />
            <mxPoint x="205" y="700" as="targetPoint" />
          </mxGeometry>
        </mxCell>
        <mxCell id="WHDjwU04RVyw4QYj8cr9-7" value="True" style="edgeStyle=orthogonalEdgeStyle;rounded=0;html=1;jettySize=auto;orthogonalLoop=1;fontSize=11;endArrow=block;endFill=0;endSize=8;strokeWidth=1;shadow=0;labelBackgroundColor=none;entryX=1;entryY=0.5;entryDx=0;entryDy=0;exitX=0;exitY=0.5;exitDx=0;exitDy=0;" edge="1" parent="wKN9chTsW7mNMitrZWVQ-1" source="WHDjwU04RVyw4QYj8cr9-2" target="NiiNuS9fkEexJ306rpCw-16">
          <mxGeometry x="-0.1764" y="10" relative="1" as="geometry">
            <mxPoint as="offset" />
            <mxPoint x="-30.52000000000001" y="660" as="sourcePoint" />
            <mxPoint x="349.48" y="470" as="targetPoint" />
            <Array as="points" />
          </mxGeometry>
        </mxCell>
        <mxCell id="WHDjwU04RVyw4QYj8cr9-8" value="True" style="edgeStyle=orthogonalEdgeStyle;rounded=0;html=1;jettySize=auto;orthogonalLoop=1;fontSize=11;endArrow=block;endFill=0;endSize=8;strokeWidth=1;shadow=0;labelBackgroundColor=none;entryX=0;entryY=0.5;entryDx=0;entryDy=0;exitX=1;exitY=0.5;exitDx=0;exitDy=0;" edge="1" parent="wKN9chTsW7mNMitrZWVQ-1" source="NiiNuS9fkEexJ306rpCw-19" target="WHDjwU04RVyw4QYj8cr9-14">
          <mxGeometry y="10" relative="1" as="geometry">
            <mxPoint as="offset" />
            <mxPoint x="400" y="760" as="sourcePoint" />
            <mxPoint x="450" y="760" as="targetPoint" />
          </mxGeometry>
        </mxCell>
        <mxCell id="WHDjwU04RVyw4QYj8cr9-10" value="True" style="edgeStyle=orthogonalEdgeStyle;rounded=0;html=1;jettySize=auto;orthogonalLoop=1;fontSize=11;endArrow=block;endFill=0;endSize=8;strokeWidth=1;shadow=0;labelBackgroundColor=none;entryX=0;entryY=0.5;entryDx=0;entryDy=0;exitX=0.971;exitY=0.494;exitDx=0;exitDy=0;exitPerimeter=0;" edge="1" parent="wKN9chTsW7mNMitrZWVQ-1" source="WHDjwU04RVyw4QYj8cr9-4" target="NiiNuS9fkEexJ306rpCw-19">
          <mxGeometry y="10" relative="1" as="geometry">
            <mxPoint as="offset" />
            <mxPoint x="470" y="440" as="sourcePoint" />
            <mxPoint x="520" y="440" as="targetPoint" />
          </mxGeometry>
        </mxCell>
        <mxCell id="WHDjwU04RVyw4QYj8cr9-11" value="&lt;div&gt;Send RST data to Main&lt;/div&gt;" style="rounded=1;whiteSpace=wrap;html=1;fontSize=12;glass=0;strokeWidth=1;shadow=0;fillColor=#d5e8d4;strokeColor=#82b366;" vertex="1" parent="wKN9chTsW7mNMitrZWVQ-1">
          <mxGeometry x="-30" y="630" width="120" height="40" as="geometry" />
        </mxCell>
        <mxCell id="WHDjwU04RVyw4QYj8cr9-12" value="&lt;div&gt;Activate Burner CCT for 45s&lt;/div&gt;" style="rounded=1;whiteSpace=wrap;html=1;fontSize=12;glass=0;strokeWidth=1;shadow=0;fillColor=#d5e8d4;strokeColor=#82b366;" vertex="1" parent="wKN9chTsW7mNMitrZWVQ-1">
          <mxGeometry x="-30" y="730" width="120" height="40" as="geometry" />
        </mxCell>
        <mxCell id="WHDjwU04RVyw4QYj8cr9-13" value="True" style="edgeStyle=orthogonalEdgeStyle;rounded=0;html=1;jettySize=auto;orthogonalLoop=1;fontSize=11;endArrow=block;endFill=0;endSize=8;strokeWidth=1;shadow=0;labelBackgroundColor=none;entryX=1;entryY=0.5;entryDx=0;entryDy=0;exitX=0;exitY=0.5;exitDx=0;exitDy=0;" edge="1" parent="wKN9chTsW7mNMitrZWVQ-1" source="WHDjwU04RVyw4QYj8cr9-4" target="WHDjwU04RVyw4QYj8cr9-12">
          <mxGeometry y="10" relative="1" as="geometry">
            <mxPoint as="offset" />
            <mxPoint x="155" y="660" as="sourcePoint" />
            <mxPoint x="100" y="660" as="targetPoint" />
          </mxGeometry>
        </mxCell>
        <mxCell id="WHDjwU04RVyw4QYj8cr9-14" value="Reset MP" style="rounded=1;whiteSpace=wrap;html=1;fontSize=12;glass=0;strokeWidth=1;shadow=0;fillColor=#d5e8d4;strokeColor=#82b366;" vertex="1" parent="wKN9chTsW7mNMitrZWVQ-1">
          <mxGeometry x="450" y="730" width="120" height="40" as="geometry" />
        </mxCell>
        <mxCell id="WHDjwU04RVyw4QYj8cr9-15" value="" style="edgeStyle=orthogonalEdgeStyle;rounded=0;html=1;jettySize=auto;orthogonalLoop=1;fontSize=11;endArrow=block;endFill=0;endSize=8;strokeWidth=1;shadow=0;labelBackgroundColor=none;exitX=0.5;exitY=1;exitDx=0;exitDy=0;entryX=0.5;entryY=0;entryDx=0;entryDy=0;" edge="1" parent="wKN9chTsW7mNMitrZWVQ-1" source="NiiNuS9fkEexJ306rpCw-2" target="NiiNuS9fkEexJ306rpCw-12">
          <mxGeometry y="10" relative="1" as="geometry">
            <mxPoint as="offset" />
            <mxPoint x="195" y="340" as="sourcePoint" />
            <mxPoint x="195" y="370" as="targetPoint" />
            <Array as="points" />
          </mxGeometry>
        </mxCell>
        <mxCell id="WHDjwU04RVyw4QYj8cr9-16" value="" style="edgeStyle=orthogonalEdgeStyle;rounded=0;html=1;jettySize=auto;orthogonalLoop=1;fontSize=11;endArrow=block;endFill=0;endSize=8;strokeWidth=1;shadow=0;labelBackgroundColor=none;exitX=0.584;exitY=1.009;exitDx=0;exitDy=0;entryX=0.5;entryY=0;entryDx=0;entryDy=0;exitPerimeter=0;" edge="1" parent="wKN9chTsW7mNMitrZWVQ-1" source="NiiNuS9fkEexJ306rpCw-12" target="WHDjwU04RVyw4QYj8cr9-2">
          <mxGeometry y="10" relative="1" as="geometry">
            <mxPoint as="offset" />
            <mxPoint x="205" y="350" as="sourcePoint" />
            <mxPoint x="205" y="380" as="targetPoint" />
            <Array as="points" />
          </mxGeometry>
        </mxCell>
      </root>
    </mxGraphModel>
  </diagram>
  <diagram name="MAIN-PIC" id="BCb7zbmgE4lmPwmlyJaf">
    <mxGraphModel dx="545" dy="736" grid="1" gridSize="10" guides="1" tooltips="1" connect="1" arrows="1" fold="1" page="1" pageScale="1" pageWidth="827" pageHeight="1169" math="0" shadow="0">
      <root>
        <mxCell id="3_j0A4407lXGw9K5G1xE-0" />
        <mxCell id="3_j0A4407lXGw9K5G1xE-1" parent="3_j0A4407lXGw9K5G1xE-0" />
        <mxCell id="3_j0A4407lXGw9K5G1xE-2" value="" style="rounded=0;html=1;jettySize=auto;orthogonalLoop=1;fontSize=11;endArrow=block;endFill=0;endSize=8;strokeWidth=1;shadow=0;labelBackgroundColor=none;edgeStyle=orthogonalEdgeStyle;exitX=0.5;exitY=1;exitDx=0;exitDy=0;" parent="3_j0A4407lXGw9K5G1xE-1" source="3_j0A4407lXGw9K5G1xE-8" edge="1">
          <mxGeometry relative="1" as="geometry">
            <mxPoint x="545" y="340" as="sourcePoint" />
            <mxPoint x="535" y="310" as="targetPoint" />
            <Array as="points">
              <mxPoint x="535" y="280" />
              <mxPoint x="535" y="280" />
            </Array>
          </mxGeometry>
        </mxCell>
        <mxCell id="3_j0A4407lXGw9K5G1xE-4" value="&lt;div&gt;Turn on LED&lt;/div&gt;" style="rounded=1;whiteSpace=wrap;html=1;fontSize=12;glass=0;strokeWidth=1;shadow=0;fillColor=#d5e8d4;strokeColor=#82b366;" parent="3_j0A4407lXGw9K5G1xE-1" vertex="1">
          <mxGeometry x="320" y="385" width="120" height="50" as="geometry" />
        </mxCell>
        <mxCell id="3_j0A4407lXGw9K5G1xE-6" value="Turn on Main PIC, Unreg2" style="rounded=1;whiteSpace=wrap;html=1;fontSize=12;glass=0;strokeWidth=1;shadow=0;fillColor=#d5e8d4;strokeColor=#82b366;" parent="3_j0A4407lXGw9K5G1xE-1" vertex="1">
          <mxGeometry x="475" y="310" width="120" height="40" as="geometry" />
        </mxCell>
        <mxCell id="3_j0A4407lXGw9K5G1xE-7" value="MAIN&lt;div&gt;PIC&lt;/div&gt;" style="ellipse;whiteSpace=wrap;html=1;fillColor=#e1d5e7;strokeColor=#9673a6;" parent="3_j0A4407lXGw9K5G1xE-1" vertex="1">
          <mxGeometry x="455" y="100" width="150" height="80" as="geometry" />
        </mxCell>
        <mxCell id="3_j0A4407lXGw9K5G1xE-8" value="START" style="ellipse;whiteSpace=wrap;html=1;fillColor=#ffe6cc;strokeColor=#d79b00;" parent="3_j0A4407lXGw9K5G1xE-1" vertex="1">
          <mxGeometry x="475" y="190" width="120" height="80" as="geometry" />
        </mxCell>
        <mxCell id="3_j0A4407lXGw9K5G1xE-11" value="" style="rounded=0;html=1;jettySize=auto;orthogonalLoop=1;fontSize=11;endArrow=block;endFill=0;endSize=8;strokeWidth=1;shadow=0;labelBackgroundColor=none;edgeStyle=orthogonalEdgeStyle;" parent="3_j0A4407lXGw9K5G1xE-1" source="3_j0A4407lXGw9K5G1xE-13" target="3_j0A4407lXGw9K5G1xE-17" edge="1">
          <mxGeometry y="20" relative="1" as="geometry">
            <mxPoint as="offset" />
          </mxGeometry>
        </mxCell>
        <mxCell id="3_j0A4407lXGw9K5G1xE-12" value="True" style="edgeStyle=orthogonalEdgeStyle;rounded=0;html=1;jettySize=auto;orthogonalLoop=1;fontSize=11;endArrow=block;endFill=0;endSize=8;strokeWidth=1;shadow=0;labelBackgroundColor=none;exitX=0;exitY=0.5;exitDx=0;exitDy=0;entryX=1;entryY=0.5;entryDx=0;entryDy=0;" parent="3_j0A4407lXGw9K5G1xE-1" source="3_j0A4407lXGw9K5G1xE-13" target="3_j0A4407lXGw9K5G1xE-4" edge="1">
          <mxGeometry x="-0.3333" y="10" relative="1" as="geometry">
            <mxPoint as="offset" />
            <mxPoint x="160" y="590" as="sourcePoint" />
            <mxPoint x="420" y="410" as="targetPoint" />
            <Array as="points" />
          </mxGeometry>
        </mxCell>
        <mxCell id="_vU2pv3f1aBhETejaypA-17" value="" style="edgeStyle=none;curved=1;rounded=0;orthogonalLoop=1;jettySize=auto;html=1;fontSize=12;startSize=8;endSize=8;" edge="1" parent="3_j0A4407lXGw9K5G1xE-1" source="3_j0A4407lXGw9K5G1xE-13" target="3_j0A4407lXGw9K5G1xE-4">
          <mxGeometry relative="1" as="geometry" />
        </mxCell>
        <mxCell id="3_j0A4407lXGw9K5G1xE-13" value="&lt;div&gt;5-10 mins after DEP&lt;/div&gt;" style="rhombus;whiteSpace=wrap;html=1;shadow=0;fontFamily=Helvetica;fontSize=12;align=center;strokeWidth=1;spacing=6;spacingTop=-4;fillColor=#e1d5e7;strokeColor=#9673a6;" parent="3_j0A4407lXGw9K5G1xE-1" vertex="1">
          <mxGeometry x="485" y="370" width="100" height="80" as="geometry" />
        </mxCell>
        <mxCell id="3_j0A4407lXGw9K5G1xE-14" value="&lt;div&gt;Attempt ANT DEP&lt;/div&gt;" style="rounded=1;whiteSpace=wrap;html=1;fontSize=12;glass=0;strokeWidth=1;shadow=0;fillColor=#d5e8d4;strokeColor=#82b366;" parent="3_j0A4407lXGw9K5G1xE-1" vertex="1">
          <mxGeometry x="320" y="485" width="120" height="50" as="geometry" />
        </mxCell>
        <mxCell id="3_j0A4407lXGw9K5G1xE-15" value="" style="rounded=0;html=1;jettySize=auto;orthogonalLoop=1;fontSize=11;endArrow=block;endFill=0;endSize=8;strokeWidth=1;shadow=0;labelBackgroundColor=none;edgeStyle=orthogonalEdgeStyle;entryX=0.5;entryY=0;entryDx=0;entryDy=0;" parent="3_j0A4407lXGw9K5G1xE-1" source="3_j0A4407lXGw9K5G1xE-17" target="3_j0A4407lXGw9K5G1xE-20" edge="1">
          <mxGeometry x="0.3333" y="20" relative="1" as="geometry">
            <mxPoint as="offset" />
            <mxPoint x="535" y="630" as="targetPoint" />
          </mxGeometry>
        </mxCell>
        <mxCell id="3_j0A4407lXGw9K5G1xE-16" value="True" style="edgeStyle=orthogonalEdgeStyle;rounded=0;html=1;jettySize=auto;orthogonalLoop=1;fontSize=11;endArrow=block;endFill=0;endSize=8;strokeWidth=1;shadow=0;labelBackgroundColor=none;entryX=1;entryY=0.5;entryDx=0;entryDy=0;exitX=0;exitY=0.5;exitDx=0;exitDy=0;" parent="3_j0A4407lXGw9K5G1xE-1" source="3_j0A4407lXGw9K5G1xE-20" target="3_j0A4407lXGw9K5G1xE-18" edge="1">
          <mxGeometry y="10" relative="1" as="geometry">
            <mxPoint as="offset" />
            <mxPoint x="430" y="880" as="sourcePoint" />
            <mxPoint x="380" y="820" as="targetPoint" />
            <Array as="points" />
          </mxGeometry>
        </mxCell>
        <mxCell id="3_j0A4407lXGw9K5G1xE-17" value="&lt;div&gt;ANT DEP &amp;lt; N&lt;/div&gt;" style="rhombus;whiteSpace=wrap;html=1;shadow=0;fontFamily=Helvetica;fontSize=12;align=center;strokeWidth=1;spacing=6;spacingTop=-4;fillColor=#e1d5e7;strokeColor=#9673a6;" parent="3_j0A4407lXGw9K5G1xE-1" vertex="1">
          <mxGeometry x="485" y="470" width="100" height="80" as="geometry" />
        </mxCell>
        <mxCell id="3_j0A4407lXGw9K5G1xE-18" value="&lt;div&gt;Reset satellite&lt;/div&gt;" style="rounded=1;whiteSpace=wrap;html=1;fontSize=12;glass=0;strokeWidth=1;shadow=0;fillColor=#d5e8d4;strokeColor=#82b366;" parent="3_j0A4407lXGw9K5G1xE-1" vertex="1">
          <mxGeometry x="320" y="590" width="120" height="40" as="geometry" />
        </mxCell>
        <mxCell id="3_j0A4407lXGw9K5G1xE-20" value="&lt;div&gt;RST FLAG = N&lt;/div&gt;" style="rhombus;whiteSpace=wrap;html=1;shadow=0;fontFamily=Helvetica;fontSize=12;align=center;strokeWidth=1;spacing=6;spacingTop=-4;fillColor=#e1d5e7;strokeColor=#9673a6;" parent="3_j0A4407lXGw9K5G1xE-1" vertex="1">
          <mxGeometry x="485" y="570" width="100" height="80" as="geometry" />
        </mxCell>
        <mxCell id="3_j0A4407lXGw9K5G1xE-21" value="&lt;div&gt;CMD from PC&lt;/div&gt;" style="rhombus;whiteSpace=wrap;html=1;shadow=0;fontFamily=Helvetica;fontSize=12;align=center;strokeWidth=1;spacing=6;spacingTop=-4;fillColor=#e1d5e7;strokeColor=#9673a6;" parent="3_j0A4407lXGw9K5G1xE-1" vertex="1">
          <mxGeometry x="485" y="670" width="100" height="80" as="geometry" />
        </mxCell>
        <mxCell id="3_j0A4407lXGw9K5G1xE-22" value="" style="rounded=0;html=1;jettySize=auto;orthogonalLoop=1;fontSize=11;endArrow=block;endFill=0;endSize=8;strokeWidth=1;shadow=0;labelBackgroundColor=none;edgeStyle=orthogonalEdgeStyle;entryX=0.5;entryY=0;entryDx=0;entryDy=0;exitX=0.5;exitY=1;exitDx=0;exitDy=0;" parent="3_j0A4407lXGw9K5G1xE-1" source="3_j0A4407lXGw9K5G1xE-20" target="3_j0A4407lXGw9K5G1xE-21" edge="1">
          <mxGeometry x="0.3333" y="20" relative="1" as="geometry">
            <mxPoint as="offset" />
            <mxPoint x="545" y="580" as="sourcePoint" />
            <mxPoint x="545" y="660" as="targetPoint" />
          </mxGeometry>
        </mxCell>
        <mxCell id="3_j0A4407lXGw9K5G1xE-23" value="Go to HK collection" style="rounded=1;whiteSpace=wrap;html=1;fontSize=12;glass=0;strokeWidth=1;shadow=0;fillColor=#d5e8d4;strokeColor=#82b366;" parent="3_j0A4407lXGw9K5G1xE-1" vertex="1">
          <mxGeometry x="740" y="990" width="120" height="40" as="geometry" />
        </mxCell>
        <mxCell id="3_j0A4407lXGw9K5G1xE-24" value="True" style="edgeStyle=orthogonalEdgeStyle;rounded=0;html=1;jettySize=auto;orthogonalLoop=1;fontSize=11;endArrow=block;endFill=0;endSize=8;strokeWidth=1;shadow=0;labelBackgroundColor=none;exitX=0;exitY=0.5;exitDx=0;exitDy=0;entryX=1;entryY=0.5;entryDx=0;entryDy=0;" parent="3_j0A4407lXGw9K5G1xE-1" source="3_j0A4407lXGw9K5G1xE-17" target="3_j0A4407lXGw9K5G1xE-14" edge="1">
          <mxGeometry y="10" relative="1" as="geometry">
            <mxPoint as="offset" />
            <mxPoint x="110" y="730" as="sourcePoint" />
            <mxPoint x="160" y="730" as="targetPoint" />
            <Array as="points" />
          </mxGeometry>
        </mxCell>
        <mxCell id="3_j0A4407lXGw9K5G1xE-25" value="" style="edgeStyle=orthogonalEdgeStyle;rounded=0;html=1;jettySize=auto;orthogonalLoop=1;fontSize=11;endArrow=block;endFill=0;endSize=8;strokeWidth=1;shadow=0;labelBackgroundColor=none;exitX=1;exitY=0.5;exitDx=0;exitDy=0;entryX=0;entryY=0.5;entryDx=0;entryDy=0;" parent="3_j0A4407lXGw9K5G1xE-1" source="_vU2pv3f1aBhETejaypA-2" target="_vU2pv3f1aBhETejaypA-8" edge="1">
          <mxGeometry y="10" relative="1" as="geometry">
            <mxPoint as="offset" />
            <mxPoint x="595" y="620" as="sourcePoint" />
            <mxPoint x="705" y="650" as="targetPoint" />
          </mxGeometry>
        </mxCell>
        <mxCell id="_vU2pv3f1aBhETejaypA-1" value="&lt;div&gt;RSV Time given?&lt;/div&gt;" style="rhombus;whiteSpace=wrap;html=1;shadow=0;fontFamily=Helvetica;fontSize=12;align=center;strokeWidth=1;spacing=6;spacingTop=-4;fillColor=#e1d5e7;strokeColor=#9673a6;" vertex="1" parent="3_j0A4407lXGw9K5G1xE-1">
          <mxGeometry x="340" y="770" width="100" height="80" as="geometry" />
        </mxCell>
        <mxCell id="_vU2pv3f1aBhETejaypA-2" value="&lt;div&gt;not rcvd CMD from Com in 30 days?&lt;/div&gt;" style="rhombus;whiteSpace=wrap;html=1;shadow=0;fontFamily=Helvetica;fontSize=12;align=center;strokeWidth=1;spacing=6;spacingTop=-4;fillColor=#e1d5e7;strokeColor=#9673a6;" vertex="1" parent="3_j0A4407lXGw9K5G1xE-1">
          <mxGeometry x="485" y="970" width="100" height="80" as="geometry" />
        </mxCell>
        <mxCell id="_vU2pv3f1aBhETejaypA-3" value="&lt;div&gt;RSV FLAG = N&lt;/div&gt;" style="rhombus;whiteSpace=wrap;html=1;shadow=0;fontFamily=Helvetica;fontSize=12;align=center;strokeWidth=1;spacing=6;spacingTop=-4;fillColor=#e1d5e7;strokeColor=#9673a6;" vertex="1" parent="3_j0A4407lXGw9K5G1xE-1">
          <mxGeometry x="485" y="870" width="100" height="80" as="geometry" />
        </mxCell>
        <mxCell id="_vU2pv3f1aBhETejaypA-4" value="&lt;div&gt;CMD from Com&lt;/div&gt;" style="rhombus;whiteSpace=wrap;html=1;shadow=0;fontFamily=Helvetica;fontSize=12;align=center;strokeWidth=1;spacing=6;spacingTop=-4;fillColor=#e1d5e7;strokeColor=#9673a6;" vertex="1" parent="3_j0A4407lXGw9K5G1xE-1">
          <mxGeometry x="485" y="770" width="100" height="80" as="geometry" />
        </mxCell>
        <mxCell id="_vU2pv3f1aBhETejaypA-5" value="" style="rounded=0;html=1;jettySize=auto;orthogonalLoop=1;fontSize=11;endArrow=block;endFill=0;endSize=8;strokeWidth=1;shadow=0;labelBackgroundColor=none;edgeStyle=orthogonalEdgeStyle;entryX=0.5;entryY=0;entryDx=0;entryDy=0;exitX=0.505;exitY=0.972;exitDx=0;exitDy=0;exitPerimeter=0;" edge="1" parent="3_j0A4407lXGw9K5G1xE-1" source="_vU2pv3f1aBhETejaypA-4" target="_vU2pv3f1aBhETejaypA-3">
          <mxGeometry x="0.3333" y="20" relative="1" as="geometry">
            <mxPoint as="offset" />
            <mxPoint x="529.84" y="880" as="sourcePoint" />
            <mxPoint x="529.84" y="900" as="targetPoint" />
          </mxGeometry>
        </mxCell>
        <mxCell id="_vU2pv3f1aBhETejaypA-6" value="" style="rounded=0;html=1;jettySize=auto;orthogonalLoop=1;fontSize=11;endArrow=block;endFill=0;endSize=8;strokeWidth=1;shadow=0;labelBackgroundColor=none;edgeStyle=orthogonalEdgeStyle;entryX=0.5;entryY=0;entryDx=0;entryDy=0;exitX=0.5;exitY=1;exitDx=0;exitDy=0;" edge="1" parent="3_j0A4407lXGw9K5G1xE-1" source="_vU2pv3f1aBhETejaypA-3" target="_vU2pv3f1aBhETejaypA-2">
          <mxGeometry x="0.3333" y="20" relative="1" as="geometry">
            <mxPoint as="offset" />
            <mxPoint x="600" y="840" as="sourcePoint" />
            <mxPoint x="600" y="860" as="targetPoint" />
          </mxGeometry>
        </mxCell>
        <mxCell id="_vU2pv3f1aBhETejaypA-7" value="" style="rounded=0;html=1;jettySize=auto;orthogonalLoop=1;fontSize=11;endArrow=block;endFill=0;endSize=8;strokeWidth=1;shadow=0;labelBackgroundColor=none;edgeStyle=orthogonalEdgeStyle;entryX=0.5;entryY=0;entryDx=0;entryDy=0;exitX=0.5;exitY=1;exitDx=0;exitDy=0;" edge="1" parent="3_j0A4407lXGw9K5G1xE-1" source="3_j0A4407lXGw9K5G1xE-21" target="_vU2pv3f1aBhETejaypA-4">
          <mxGeometry x="0.3333" y="20" relative="1" as="geometry">
            <mxPoint as="offset" />
            <mxPoint x="565" y="680" as="sourcePoint" />
            <mxPoint x="565" y="700" as="targetPoint" />
          </mxGeometry>
        </mxCell>
        <mxCell id="_vU2pv3f1aBhETejaypA-8" value="&lt;div&gt;90 secs passed?&lt;/div&gt;" style="rhombus;whiteSpace=wrap;html=1;shadow=0;fontFamily=Helvetica;fontSize=12;align=center;strokeWidth=1;spacing=6;spacingTop=-4;fillColor=#e1d5e7;strokeColor=#9673a6;" vertex="1" parent="3_j0A4407lXGw9K5G1xE-1">
          <mxGeometry x="605" y="970" width="100" height="80" as="geometry" />
        </mxCell>
        <mxCell id="_vU2pv3f1aBhETejaypA-9" value="" style="edgeStyle=orthogonalEdgeStyle;rounded=0;html=1;jettySize=auto;orthogonalLoop=1;fontSize=11;endArrow=block;endFill=0;endSize=8;strokeWidth=1;shadow=0;labelBackgroundColor=none;exitX=1.033;exitY=0.501;exitDx=0;exitDy=0;entryX=0;entryY=0.5;entryDx=0;entryDy=0;exitPerimeter=0;" edge="1" parent="3_j0A4407lXGw9K5G1xE-1" source="_vU2pv3f1aBhETejaypA-8" target="3_j0A4407lXGw9K5G1xE-23">
          <mxGeometry y="10" relative="1" as="geometry">
            <mxPoint as="offset" />
            <mxPoint x="595" y="1020" as="sourcePoint" />
            <mxPoint x="650" y="1020" as="targetPoint" />
          </mxGeometry>
        </mxCell>
        <mxCell id="_vU2pv3f1aBhETejaypA-10" value="True" style="edgeLabel;html=1;align=center;verticalAlign=middle;resizable=0;points=[];" vertex="1" connectable="0" parent="_vU2pv3f1aBhETejaypA-9">
          <mxGeometry x="-0.5897" y="2" relative="1" as="geometry">
            <mxPoint x="9" y="-8" as="offset" />
          </mxGeometry>
        </mxCell>
        <mxCell id="_vU2pv3f1aBhETejaypA-11" value="True" style="edgeStyle=orthogonalEdgeStyle;rounded=0;html=1;jettySize=auto;orthogonalLoop=1;fontSize=11;endArrow=block;endFill=0;endSize=8;strokeWidth=1;shadow=0;labelBackgroundColor=none;entryX=0.5;entryY=0;entryDx=0;entryDy=0;exitX=0;exitY=0.5;exitDx=0;exitDy=0;" edge="1" parent="3_j0A4407lXGw9K5G1xE-1" source="3_j0A4407lXGw9K5G1xE-21" target="_vU2pv3f1aBhETejaypA-1">
          <mxGeometry y="10" relative="1" as="geometry">
            <mxPoint as="offset" />
            <mxPoint x="495" y="690" as="sourcePoint" />
            <mxPoint x="424" y="690" as="targetPoint" />
            <Array as="points" />
          </mxGeometry>
        </mxCell>
        <mxCell id="_vU2pv3f1aBhETejaypA-12" value="True" style="edgeStyle=orthogonalEdgeStyle;rounded=0;html=1;jettySize=auto;orthogonalLoop=1;fontSize=11;endArrow=block;endFill=0;endSize=8;strokeWidth=1;shadow=0;labelBackgroundColor=none;entryX=1;entryY=0.5;entryDx=0;entryDy=0;exitX=0;exitY=0.5;exitDx=0;exitDy=0;" edge="1" parent="3_j0A4407lXGw9K5G1xE-1" source="_vU2pv3f1aBhETejaypA-4" target="_vU2pv3f1aBhETejaypA-1">
          <mxGeometry y="10" relative="1" as="geometry">
            <mxPoint as="offset" />
            <mxPoint x="485" y="809.85" as="sourcePoint" />
            <mxPoint x="414" y="809.85" as="targetPoint" />
            <Array as="points" />
          </mxGeometry>
        </mxCell>
        <mxCell id="_vU2pv3f1aBhETejaypA-13" value="True" style="edgeStyle=orthogonalEdgeStyle;rounded=0;html=1;jettySize=auto;orthogonalLoop=1;fontSize=11;endArrow=block;endFill=0;endSize=8;strokeWidth=1;shadow=0;labelBackgroundColor=none;entryX=1;entryY=0.5;entryDx=0;entryDy=0;exitX=0;exitY=0.5;exitDx=0;exitDy=0;" edge="1" parent="3_j0A4407lXGw9K5G1xE-1" source="_vU2pv3f1aBhETejaypA-1" target="_vU2pv3f1aBhETejaypA-14">
          <mxGeometry y="10" relative="1" as="geometry">
            <mxPoint as="offset" />
            <mxPoint x="365" y="700" as="sourcePoint" />
            <mxPoint x="294" y="700" as="targetPoint" />
            <Array as="points" />
          </mxGeometry>
        </mxCell>
        <mxCell id="_vU2pv3f1aBhETejaypA-14" value="&lt;div&gt;Reserve CMD&lt;/div&gt;" style="rounded=1;whiteSpace=wrap;html=1;fontSize=12;glass=0;strokeWidth=1;shadow=0;fillColor=#d5e8d4;strokeColor=#82b366;" vertex="1" parent="3_j0A4407lXGw9K5G1xE-1">
          <mxGeometry x="190" y="790" width="120" height="40" as="geometry" />
        </mxCell>
        <mxCell id="_vU2pv3f1aBhETejaypA-15" value="&lt;div&gt;Go to execute CMD&lt;/div&gt;" style="rounded=1;whiteSpace=wrap;html=1;fontSize=12;glass=0;strokeWidth=1;shadow=0;fillColor=#d5e8d4;strokeColor=#82b366;" vertex="1" parent="3_j0A4407lXGw9K5G1xE-1">
          <mxGeometry x="320" y="890" width="120" height="40" as="geometry" />
        </mxCell>
        <mxCell id="_vU2pv3f1aBhETejaypA-16" value="&lt;div&gt;Stop CW&lt;/div&gt;" style="rounded=1;whiteSpace=wrap;html=1;fontSize=12;glass=0;strokeWidth=1;shadow=0;fillColor=#d5e8d4;strokeColor=#82b366;" vertex="1" parent="3_j0A4407lXGw9K5G1xE-1">
          <mxGeometry x="320" y="990" width="120" height="40" as="geometry" />
        </mxCell>
        <mxCell id="_vU2pv3f1aBhETejaypA-18" value="" style="rounded=0;html=1;jettySize=auto;orthogonalLoop=1;fontSize=11;endArrow=block;endFill=0;endSize=8;strokeWidth=1;shadow=0;labelBackgroundColor=none;edgeStyle=orthogonalEdgeStyle;exitX=0.5;exitY=1;exitDx=0;exitDy=0;entryX=0.5;entryY=0;entryDx=0;entryDy=0;" edge="1" parent="3_j0A4407lXGw9K5G1xE-1" source="3_j0A4407lXGw9K5G1xE-6" target="3_j0A4407lXGw9K5G1xE-13">
          <mxGeometry y="20" relative="1" as="geometry">
            <mxPoint as="offset" />
            <mxPoint x="545" y="460" as="sourcePoint" />
            <mxPoint x="545" y="480" as="targetPoint" />
          </mxGeometry>
        </mxCell>
        <mxCell id="_vU2pv3f1aBhETejaypA-19" value="True" style="edgeStyle=orthogonalEdgeStyle;rounded=0;html=1;jettySize=auto;orthogonalLoop=1;fontSize=11;endArrow=block;endFill=0;endSize=8;strokeWidth=1;shadow=0;labelBackgroundColor=none;entryX=1;entryY=0.5;entryDx=0;entryDy=0;exitX=0;exitY=0.5;exitDx=0;exitDy=0;" edge="1" parent="3_j0A4407lXGw9K5G1xE-1" source="_vU2pv3f1aBhETejaypA-2" target="_vU2pv3f1aBhETejaypA-16">
          <mxGeometry y="10" relative="1" as="geometry">
            <mxPoint as="offset" />
            <mxPoint x="485" y="1009.8199999999999" as="sourcePoint" />
            <mxPoint x="440" y="1009.8199999999999" as="targetPoint" />
            <Array as="points" />
          </mxGeometry>
        </mxCell>
        <mxCell id="_vU2pv3f1aBhETejaypA-20" value="True" style="edgeStyle=orthogonalEdgeStyle;rounded=0;html=1;jettySize=auto;orthogonalLoop=1;fontSize=11;endArrow=block;endFill=0;endSize=8;strokeWidth=1;shadow=0;labelBackgroundColor=none;entryX=1;entryY=0.5;entryDx=0;entryDy=0;exitX=0;exitY=0.5;exitDx=0;exitDy=0;" edge="1" parent="3_j0A4407lXGw9K5G1xE-1" source="_vU2pv3f1aBhETejaypA-3" target="_vU2pv3f1aBhETejaypA-15">
          <mxGeometry y="10" relative="1" as="geometry">
            <mxPoint as="offset" />
            <mxPoint x="485" y="930" as="sourcePoint" />
            <mxPoint x="440" y="930" as="targetPoint" />
            <Array as="points" />
          </mxGeometry>
        </mxCell>
      </root>
    </mxGraphModel>
  </diagram>
  <diagram name="HK" id="is3DVRnyZmcMHSkMOhhU">
    <mxGraphModel dx="708" dy="957" grid="1" gridSize="10" guides="1" tooltips="1" connect="1" arrows="1" fold="1" page="1" pageScale="1" pageWidth="827" pageHeight="1169" math="0" shadow="0">
      <root>
        <mxCell id="paTIQr6_ph9NqaV-wkx2-0" />
        <mxCell id="paTIQr6_ph9NqaV-wkx2-1" parent="paTIQr6_ph9NqaV-wkx2-0" />
        <mxCell id="paTIQr6_ph9NqaV-wkx2-2" value="" style="rounded=0;html=1;jettySize=auto;orthogonalLoop=1;fontSize=11;endArrow=block;endFill=0;endSize=8;strokeWidth=1;shadow=0;labelBackgroundColor=none;edgeStyle=orthogonalEdgeStyle;exitX=0.5;exitY=1;exitDx=0;exitDy=0;entryX=0.5;entryY=0;entryDx=0;entryDy=0;" edge="1" parent="paTIQr6_ph9NqaV-wkx2-1" source="paTIQr6_ph9NqaV-wkx2-8" target="paTIQr6_ph9NqaV-wkx2-6">
          <mxGeometry relative="1" as="geometry">
            <mxPoint x="220" y="320" as="sourcePoint" />
            <mxPoint x="290" y="350" as="targetPoint" />
            <Array as="points">
              <mxPoint x="220" y="270" />
              <mxPoint x="220" y="270" />
            </Array>
          </mxGeometry>
        </mxCell>
        <mxCell id="paTIQr6_ph9NqaV-wkx2-3" value="" style="edgeStyle=orthogonalEdgeStyle;rounded=0;html=1;jettySize=auto;orthogonalLoop=1;fontSize=11;endArrow=block;endFill=0;endSize=8;strokeWidth=1;shadow=0;labelBackgroundColor=none;exitX=0.5;exitY=1;exitDx=0;exitDy=0;entryX=0.5;entryY=0;entryDx=0;entryDy=0;" edge="1" parent="paTIQr6_ph9NqaV-wkx2-1" source="paTIQr6_ph9NqaV-wkx2-6" target="paTIQr6_ph9NqaV-wkx2-4">
          <mxGeometry y="10" relative="1" as="geometry">
            <mxPoint as="offset" />
            <mxPoint x="270" y="514" as="sourcePoint" />
            <mxPoint x="220" y="530" as="targetPoint" />
            <Array as="points" />
          </mxGeometry>
        </mxCell>
        <mxCell id="paTIQr6_ph9NqaV-wkx2-4" value="30 mins after sat release, turn&amp;nbsp; on Com PIC, Unreg1" style="rounded=1;whiteSpace=wrap;html=1;fontSize=12;glass=0;strokeWidth=1;shadow=0;fillColor=#d5e8d4;strokeColor=#82b366;" vertex="1" parent="paTIQr6_ph9NqaV-wkx2-1">
          <mxGeometry x="160" y="360" width="120" height="50" as="geometry" />
        </mxCell>
        <mxCell id="paTIQr6_ph9NqaV-wkx2-5" value="" style="edgeStyle=orthogonalEdgeStyle;rounded=0;orthogonalLoop=1;jettySize=auto;html=1;exitX=0.5;exitY=1;exitDx=0;exitDy=0;entryX=0.5;entryY=0;entryDx=0;entryDy=0;" edge="1" parent="paTIQr6_ph9NqaV-wkx2-1" source="paTIQr6_ph9NqaV-wkx2-4" target="paTIQr6_ph9NqaV-wkx2-9">
          <mxGeometry relative="1" as="geometry">
            <mxPoint x="310" y="530" as="sourcePoint" />
            <mxPoint x="390" y="490" as="targetPoint" />
          </mxGeometry>
        </mxCell>
        <mxCell id="paTIQr6_ph9NqaV-wkx2-6" value="Turn on Main PIC, Unreg2" style="rounded=1;whiteSpace=wrap;html=1;fontSize=12;glass=0;strokeWidth=1;shadow=0;fillColor=#d5e8d4;strokeColor=#82b366;" vertex="1" parent="paTIQr6_ph9NqaV-wkx2-1">
          <mxGeometry x="160" y="290" width="120" height="40" as="geometry" />
        </mxCell>
        <mxCell id="paTIQr6_ph9NqaV-wkx2-7" value="RESET&lt;div&gt;PIC&lt;/div&gt;" style="ellipse;whiteSpace=wrap;html=1;fillColor=#e1d5e7;strokeColor=#9673a6;" vertex="1" parent="paTIQr6_ph9NqaV-wkx2-1">
          <mxGeometry x="145" y="80" width="150" height="80" as="geometry" />
        </mxCell>
        <mxCell id="paTIQr6_ph9NqaV-wkx2-8" value="START" style="ellipse;whiteSpace=wrap;html=1;fillColor=#ffe6cc;strokeColor=#d79b00;" vertex="1" parent="paTIQr6_ph9NqaV-wkx2-1">
          <mxGeometry x="160" y="170" width="120" height="80" as="geometry" />
        </mxCell>
        <mxCell id="paTIQr6_ph9NqaV-wkx2-9" value="RESET&amp;nbsp;&lt;div&gt;LOOP&lt;/div&gt;" style="ellipse;whiteSpace=wrap;html=1;fillColor=#ffe6cc;strokeColor=#d79b00;" vertex="1" parent="paTIQr6_ph9NqaV-wkx2-1">
          <mxGeometry x="160" y="450" width="120" height="80" as="geometry" />
        </mxCell>
        <mxCell id="paTIQr6_ph9NqaV-wkx2-10" value="" style="rounded=0;html=1;jettySize=auto;orthogonalLoop=1;fontSize=11;endArrow=block;endFill=0;endSize=8;strokeWidth=1;shadow=0;labelBackgroundColor=none;edgeStyle=orthogonalEdgeStyle;entryX=0.5;entryY=0;entryDx=0;entryDy=0;exitX=0.5;exitY=1;exitDx=0;exitDy=0;" edge="1" parent="paTIQr6_ph9NqaV-wkx2-1" source="paTIQr6_ph9NqaV-wkx2-21" target="paTIQr6_ph9NqaV-wkx2-13">
          <mxGeometry relative="1" as="geometry">
            <mxPoint x="310" y="680" as="sourcePoint" />
            <Array as="points">
              <mxPoint x="440" y="610" />
              <mxPoint x="360" y="610" />
              <mxPoint x="360" y="190" />
              <mxPoint x="440" y="190" />
            </Array>
          </mxGeometry>
        </mxCell>
        <mxCell id="paTIQr6_ph9NqaV-wkx2-11" value="" style="rounded=0;html=1;jettySize=auto;orthogonalLoop=1;fontSize=11;endArrow=block;endFill=0;endSize=8;strokeWidth=1;shadow=0;labelBackgroundColor=none;edgeStyle=orthogonalEdgeStyle;" edge="1" parent="paTIQr6_ph9NqaV-wkx2-1" source="paTIQr6_ph9NqaV-wkx2-13" target="paTIQr6_ph9NqaV-wkx2-17">
          <mxGeometry y="20" relative="1" as="geometry">
            <mxPoint as="offset" />
          </mxGeometry>
        </mxCell>
        <mxCell id="paTIQr6_ph9NqaV-wkx2-12" value="True" style="edgeStyle=orthogonalEdgeStyle;rounded=0;html=1;jettySize=auto;orthogonalLoop=1;fontSize=11;endArrow=block;endFill=0;endSize=8;strokeWidth=1;shadow=0;labelBackgroundColor=none;" edge="1" parent="paTIQr6_ph9NqaV-wkx2-1" source="paTIQr6_ph9NqaV-wkx2-13" target="paTIQr6_ph9NqaV-wkx2-14">
          <mxGeometry y="10" relative="1" as="geometry">
            <mxPoint as="offset" />
          </mxGeometry>
        </mxCell>
        <mxCell id="paTIQr6_ph9NqaV-wkx2-13" value="&lt;div&gt;MAIN&lt;/div&gt;&lt;div&gt;CMD = 0x28&lt;/div&gt;" style="rhombus;whiteSpace=wrap;html=1;shadow=0;fontFamily=Helvetica;fontSize=12;align=center;strokeWidth=1;spacing=6;spacingTop=-4;fillColor=#e1d5e7;strokeColor=#9673a6;" vertex="1" parent="paTIQr6_ph9NqaV-wkx2-1">
          <mxGeometry x="390" y="210" width="100" height="80" as="geometry" />
        </mxCell>
        <mxCell id="paTIQr6_ph9NqaV-wkx2-14" value="Send REST data to Main PIC" style="rounded=1;whiteSpace=wrap;html=1;fontSize=12;glass=0;strokeWidth=1;shadow=0;fillColor=#d5e8d4;strokeColor=#82b366;" vertex="1" parent="paTIQr6_ph9NqaV-wkx2-1">
          <mxGeometry x="550" y="225" width="120" height="50" as="geometry" />
        </mxCell>
        <mxCell id="paTIQr6_ph9NqaV-wkx2-15" value="" style="rounded=0;html=1;jettySize=auto;orthogonalLoop=1;fontSize=11;endArrow=block;endFill=0;endSize=8;strokeWidth=1;shadow=0;labelBackgroundColor=none;edgeStyle=orthogonalEdgeStyle;entryX=0.5;entryY=0;entryDx=0;entryDy=0;" edge="1" parent="paTIQr6_ph9NqaV-wkx2-1" source="paTIQr6_ph9NqaV-wkx2-17" target="paTIQr6_ph9NqaV-wkx2-20">
          <mxGeometry x="0.3333" y="20" relative="1" as="geometry">
            <mxPoint as="offset" />
            <mxPoint x="440" y="470" as="targetPoint" />
          </mxGeometry>
        </mxCell>
        <mxCell id="paTIQr6_ph9NqaV-wkx2-16" value="True" style="edgeStyle=orthogonalEdgeStyle;rounded=0;html=1;jettySize=auto;orthogonalLoop=1;fontSize=11;endArrow=block;endFill=0;endSize=8;strokeWidth=1;shadow=0;labelBackgroundColor=none;" edge="1" parent="paTIQr6_ph9NqaV-wkx2-1" source="paTIQr6_ph9NqaV-wkx2-17" target="paTIQr6_ph9NqaV-wkx2-18">
          <mxGeometry y="10" relative="1" as="geometry">
            <mxPoint as="offset" />
          </mxGeometry>
        </mxCell>
        <mxCell id="paTIQr6_ph9NqaV-wkx2-17" value="&lt;div&gt;MAIN&lt;/div&gt;&lt;div&gt;Count = 3600s&lt;/div&gt;" style="rhombus;whiteSpace=wrap;html=1;shadow=0;fontFamily=Helvetica;fontSize=12;align=center;strokeWidth=1;spacing=6;spacingTop=-4;fillColor=#e1d5e7;strokeColor=#9673a6;" vertex="1" parent="paTIQr6_ph9NqaV-wkx2-1">
          <mxGeometry x="390" y="310" width="100" height="80" as="geometry" />
        </mxCell>
        <mxCell id="paTIQr6_ph9NqaV-wkx2-18" value="Reset Main PIC" style="rounded=1;whiteSpace=wrap;html=1;fontSize=12;glass=0;strokeWidth=1;shadow=0;fillColor=#d5e8d4;strokeColor=#82b366;" vertex="1" parent="paTIQr6_ph9NqaV-wkx2-1">
          <mxGeometry x="540" y="330" width="120" height="40" as="geometry" />
        </mxCell>
        <mxCell id="paTIQr6_ph9NqaV-wkx2-19" value="RESET&amp;nbsp;&lt;div&gt;LOOP&lt;/div&gt;" style="ellipse;whiteSpace=wrap;html=1;fillColor=#ffe6cc;strokeColor=#d79b00;" vertex="1" parent="paTIQr6_ph9NqaV-wkx2-1">
          <mxGeometry x="350" y="80" width="120" height="80" as="geometry" />
        </mxCell>
        <mxCell id="paTIQr6_ph9NqaV-wkx2-20" value="&lt;div&gt;RESET Flag = 1&lt;/div&gt;" style="rhombus;whiteSpace=wrap;html=1;shadow=0;fontFamily=Helvetica;fontSize=12;align=center;strokeWidth=1;spacing=6;spacingTop=-4;fillColor=#e1d5e7;strokeColor=#9673a6;" vertex="1" parent="paTIQr6_ph9NqaV-wkx2-1">
          <mxGeometry x="390" y="410" width="100" height="80" as="geometry" />
        </mxCell>
        <mxCell id="paTIQr6_ph9NqaV-wkx2-21" value="&lt;div&gt;MAIN CMD = 0x27&lt;/div&gt;" style="rhombus;whiteSpace=wrap;html=1;shadow=0;fontFamily=Helvetica;fontSize=12;align=center;strokeWidth=1;spacing=6;spacingTop=-4;fillColor=#e1d5e7;strokeColor=#9673a6;" vertex="1" parent="paTIQr6_ph9NqaV-wkx2-1">
          <mxGeometry x="390" y="510" width="100" height="80" as="geometry" />
        </mxCell>
        <mxCell id="paTIQr6_ph9NqaV-wkx2-22" value="" style="rounded=0;html=1;jettySize=auto;orthogonalLoop=1;fontSize=11;endArrow=block;endFill=0;endSize=8;strokeWidth=1;shadow=0;labelBackgroundColor=none;edgeStyle=orthogonalEdgeStyle;entryX=0.5;entryY=0;entryDx=0;entryDy=0;exitX=0.5;exitY=1;exitDx=0;exitDy=0;" edge="1" parent="paTIQr6_ph9NqaV-wkx2-1" source="paTIQr6_ph9NqaV-wkx2-20" target="paTIQr6_ph9NqaV-wkx2-21">
          <mxGeometry x="0.3333" y="20" relative="1" as="geometry">
            <mxPoint as="offset" />
            <mxPoint x="450" y="420" as="sourcePoint" />
            <mxPoint x="450" y="500" as="targetPoint" />
          </mxGeometry>
        </mxCell>
        <mxCell id="paTIQr6_ph9NqaV-wkx2-23" value="Reset satellite" style="rounded=1;whiteSpace=wrap;html=1;fontSize=12;glass=0;strokeWidth=1;shadow=0;fillColor=#d5e8d4;strokeColor=#82b366;" vertex="1" parent="paTIQr6_ph9NqaV-wkx2-1">
          <mxGeometry x="540" y="430" width="120" height="40" as="geometry" />
        </mxCell>
        <mxCell id="paTIQr6_ph9NqaV-wkx2-24" value="True" style="edgeStyle=orthogonalEdgeStyle;rounded=0;html=1;jettySize=auto;orthogonalLoop=1;fontSize=11;endArrow=block;endFill=0;endSize=8;strokeWidth=1;shadow=0;labelBackgroundColor=none;exitX=1;exitY=0.5;exitDx=0;exitDy=0;entryX=0;entryY=0.5;entryDx=0;entryDy=0;" edge="1" parent="paTIQr6_ph9NqaV-wkx2-1" source="paTIQr6_ph9NqaV-wkx2-20" target="paTIQr6_ph9NqaV-wkx2-23">
          <mxGeometry y="10" relative="1" as="geometry">
            <mxPoint as="offset" />
            <mxPoint x="500" y="360" as="sourcePoint" />
            <mxPoint x="550" y="360" as="targetPoint" />
          </mxGeometry>
        </mxCell>
        <mxCell id="paTIQr6_ph9NqaV-wkx2-25" value="" style="edgeStyle=orthogonalEdgeStyle;rounded=0;html=1;jettySize=auto;orthogonalLoop=1;fontSize=11;endArrow=block;endFill=0;endSize=8;strokeWidth=1;shadow=0;labelBackgroundColor=none;exitX=1;exitY=0.5;exitDx=0;exitDy=0;entryX=0.5;entryY=1;entryDx=0;entryDy=0;" edge="1" parent="paTIQr6_ph9NqaV-wkx2-1" source="paTIQr6_ph9NqaV-wkx2-21" target="paTIQr6_ph9NqaV-wkx2-23">
          <mxGeometry y="10" relative="1" as="geometry">
            <mxPoint as="offset" />
            <mxPoint x="500" y="460" as="sourcePoint" />
            <mxPoint x="610" y="490" as="targetPoint" />
          </mxGeometry>
        </mxCell>
        <mxCell id="paTIQr6_ph9NqaV-wkx2-26" value="True" style="edgeLabel;html=1;align=center;verticalAlign=middle;resizable=0;points=[];" vertex="1" connectable="0" parent="paTIQr6_ph9NqaV-wkx2-25">
          <mxGeometry x="-0.5897" y="2" relative="1" as="geometry">
            <mxPoint as="offset" />
          </mxGeometry>
        </mxCell>
      </root>
    </mxGraphModel>
  </diagram>
</mxfile>
